<!DOCTYPE svg PUBLIC "-//W3C//DTD SVG 20010904//EN" "http://www.w3.org/TR/2001/REC-SVG-20010904/DTD/svg10.dtd">
<svg version="1.0" xmlns="http://www.w3.org/2000/svg" width="460px" height="460px" viewBox="0 0 4600 4600" preserveAspectRatio="xMidYMid meet">
<g id="layer101" fill="#3e3b3c" stroke="none">
 <path d="M3920 3800 c0 -5 5 -10 11 -10 5 0 7 5 4 10 -3 6 -8 10 -11 10 -2 0 -4 -4 -4 -10z"/>
 <path d="M2177 3634 c-1 -1 -46 -4 -100 -6 -75 -2 -101 -7 -108 -18 -6 -11 -8 -11 -9 -2 0 17 -36 11 -143 -22 -60 -19 -96 -38 -135 -71 -30 -25 -50 -45 -45 -45 4 0 -10 -17 -32 -38 -22 -21 -48 -54 -59 -73 -10 -19 -33 -62 -52 -96 -19 -33 -34 -68 -34 -76 0 -18 35 -28 49 -14 8 8 11 7 11 -2 0 -11 3 -11 15 -1 9 7 13 20 10 28 -4 10 0 13 15 9 21 -5 29 8 8 15 -7 3 11 20 40 39 31 20 50 39 47 47 -2 7 6 17 20 22 14 5 25 16 25 25 0 8 7 16 15 16 31 3 34 4 47 20 14 17 39 26 98 36 19 3 39 11 43 19 9 16 64 19 87 4 9 -5 19 -5 27 2 9 7 13 7 13 -1 0 -7 4 -9 10 -6 5 3 18 1 29 -5 14 -7 22 -7 27 1 3 6 20 9 36 7 21 -3 33 0 41 13 6 9 16 15 23 12 6 -2 15 0 19 6 3 6 17 8 31 5 19 -5 29 -1 40 15 9 12 21 18 27 15 8 -5 8 -3 0 7 -7 7 -13 26 -13 41 0 15 -5 28 -10 28 -6 0 -20 9 -31 19 -17 16 -73 33 -82 25z"/>
 <path d="M2960 3559 c0 -5 -4 -8 -10 -4 -5 3 -17 -9 -26 -27 -9 -18 -22 -36 -28 -40 -6 -4 -7 -10 -3 -15 5 -4 12 -1 18 7 7 13 10 13 18 1 5 -7 13 -11 19 -7 6 4 8 -2 5 -14 -4 -14 2 -23 21 -31 14 -7 26 -16 26 -21 0 -5 14 -14 30 -19 17 -6 30 -16 30 -22 0 -8 3 -8 8 -2 17 23 70 33 112 21 22 -7 38 -14 35 -18 -3 -3 19 -13 50 -22 57 -19 76 -37 110 -110 10 -21 27 -41 36 -43 10 -3 20 -10 22 -17 3 -6 3 0 1 14 -4 34 -71 192 -98 232 -11 17 -30 36 -41 42 -11 6 -24 16 -30 23 -15 17 -114 53 -131 46 -8 -3 -14 0 -14 7 0 6 -8 10 -17 9 -10 -1 -31 3 -46 9 -35 15 -97 16 -97 1z"/>
 <path d="M1015 3440 c3 -5 8 -10 11 -10 3 0 2 5 -1 10 -3 6 -8 10 -11 10 -3 0 -2 -4 1 -10z"/>
 <path d="M966 3324 c-9 -49 -16 -102 -15 -119 1 -29 1 -30 9 -5 5 17 8 19 9 8 1 -10 6 -18 12 -18 7 0 9 8 4 23 -11 35 -12 71 -2 84 5 7 7 27 5 44 -5 29 -4 30 9 14 17 -24 17 -16 -1 25 l-13 33 -17 -89z"/>
 <path d="M1900 3272 c-83 -28 -126 -50 -151 -76 -13 -14 -29 -26 -36 -26 -6 0 -23 -13 -36 -30 -14 -16 -30 -30 -36 -30 -6 0 -11 -9 -11 -21 0 -15 -5 -19 -16 -15 -12 4 -14 1 -9 -14 5 -14 2 -20 -9 -20 -9 0 -16 -7 -16 -15 0 -9 -7 -30 -16 -46 -15 -29 -14 -33 8 -64 13 -19 25 -29 29 -23 4 7 9 7 13 -1 4 -6 30 -11 57 -11 28 0 48 3 45 8 -11 18 25 45 68 49 25 3 43 10 40 15 -3 5 -14 6 -24 3 -27 -9 -46 28 -24 46 9 7 20 23 24 35 11 27 64 67 108 82 30 10 31 10 22 -8 -16 -30 -12 -64 10 -88 24 -25 31 -27 49 -9 10 10 12 8 9 -8 -2 -14 5 -23 25 -32 32 -14 69 -4 103 28 l22 20 6 -27 c6 -21 3 -30 -10 -37 -17 -10 -17 -11 1 -18 31 -12 110 -10 141 4 25 10 29 18 29 52 0 22 -4 43 -9 46 -11 9 3 51 15 44 22 -14 18 27 -9 76 -19 36 -36 55 -50 57 -12 2 -22 8 -22 13 0 5 -11 9 -24 9 -14 0 -31 8 -38 18 -7 9 -26 17 -43 18 -16 0 -66 3 -110 6 -59 4 -92 2 -125 -10z m127 -239 c-4 -3 -10 -3 -14 0 -3 4 0 7 7 7 7 0 10 -3 7 -7z"/>
 <path d="M3020 3221 c-8 -6 -30 -11 -48 -11 -18 0 -31 -4 -28 -8 5 -9 -19 -24 -57 -36 -15 -5 -16 -9 -7 -26 9 -17 8 -20 -7 -20 -12 0 -22 -13 -31 -40 -17 -56 -15 -69 12 -81 24 -11 24 -12 5 -32 -22 -24 -25 -52 -5 -44 8 3 17 1 19 -6 3 -7 11 3 19 21 14 32 110 111 136 112 7 0 11 -3 9 -7 -3 -5 -1 -18 4 -31 7 -18 14 -22 31 -17 21 5 21 5 4 -6 -17 -10 -16 -13 13 -39 45 -42 83 -47 114 -16 28 28 27 29 41 -34 7 -33 54 -53 87 -36 16 8 23 21 25 46 1 19 5 45 9 58 5 14 3 22 -5 22 -6 0 -9 8 -5 18 3 11 -1 32 -10 48 -8 16 -15 34 -15 39 -1 11 -46 65 -55 65 -4 0 -13 7 -21 15 -9 8 -12 15 -7 15 4 0 -3 7 -16 16 -28 20 -187 31 -211 15z m130 -191 c0 -5 -4 -10 -9 -10 -6 0 -13 5 -16 10 -3 6 1 10 9 10 9 0 16 -4 16 -10z m-30 -49 c0 -12 -20 -25 -27 -18 -7 7 6 27 18 27 5 0 9 -4 9 -9z"/>
 <path d="M961 3161 c-7 -5 -11 -15 -9 -23 2 -13 6 -12 21 2 19 19 10 34 -12 21z"/>
 <path d="M1475 3130 c-3 -5 -1 -10 4 -10 6 0 11 5 11 10 0 6 -2 10 -4 10 -3 0 -8 -4 -11 -10z"/>
 <path d="M960 3102 c0 -15 32 -24 44 -12 7 7 7 10 -1 10 -6 0 -18 3 -27 6 -9 3 -16 2 -16 -4z"/>
 <path d="M2360 3069 c0 -18 2 -19 15 -9 8 7 15 16 15 21 0 5 -7 9 -15 9 -9 0 -15 -9 -15 -21z"/>
 <path d="M1029 3048 c-10 -18 -9 -20 6 -15 9 4 19 7 21 7 2 0 4 7 4 15 0 22 -18 18 -31 -7z"/>
 <path d="M944 2927 c1 -135 2 -138 24 -144 18 -4 20 -8 10 -20 -9 -12 -9 -16 3 -24 12 -7 11 -9 -3 -9 -9 0 -18 6 -21 13 -2 6 -3 -13 -3 -44 1 -62 17 -89 51 -89 13 0 25 -3 28 -7 2 -5 3 -3 1 3 -1 6 5 25 13 42 19 38 11 62 -19 63 -17 1 -19 2 -5 6 9 2 15 9 12 14 -4 5 -1 9 4 9 6 0 11 5 11 10 0 6 -7 10 -16 10 -11 0 -14 5 -10 16 12 31 18 64 12 64 -3 0 -15 -5 -26 -12 -25 -16 -39 -2 -15 16 10 7 15 18 11 24 -4 7 -3 12 2 12 6 0 8 8 5 19 -3 12 2 20 16 24 29 7 39 54 16 75 -17 16 -17 16 -12 0 7 -20 -18 -45 -28 -28 -5 7 -11 5 -20 -7 -20 -26 -33 -7 -38 52 -3 28 -4 -12 -3 -88z"/>
 <path d="M972 3048 c-6 -6 -12 -28 -11 -47 0 -20 3 -29 6 -21 2 8 9 25 15 37 14 28 7 48 -10 31z"/>
 <path d="M2350 3030 c0 -5 4 -10 9 -10 6 0 13 5 16 10 3 6 -1 10 -9 10 -9 0 -16 -4 -16 -10z"/>
 <path d="M2103 2953 c4 -3 10 -3 14 0 3 4 0 7 -7 7 -7 0 -10 -3 -7 -7z"/>
 <path d="M1070 2910 c0 -7 3 -10 7 -7 3 4 3 10 0 14 -4 3 -7 0 -7 -7z"/>
 <path d="M1097 2900 c3 -11 7 -20 9 -20 2 0 4 9 4 20 0 11 -4 20 -9 20 -5 0 -7 -9 -4 -20z"/>
 <path d="M786 2588 c-7 -13 -19 -40 -26 -62 -10 -31 -10 -40 1 -46 8 -6 14 -33 15 -77 4 -115 3 -110 14 -93 5 8 10 32 10 52 0 20 7 43 15 52 8 8 15 18 15 22 0 4 12 18 27 32 22 20 30 22 45 13 59 -36 49 10 -16 75 -60 59 -78 65 -100 32z m11 -130 c-3 -8 -6 -5 -6 6 -1 11 2 17 5 13 3 -3 4 -12 1 -19z m0 -35 c-4 -3 -7 0 -7 7 0 7 3 10 7 7 3 -4 3 -10 0 -14z"/>
 <path d="M1060 2600 c0 -7 3 -10 7 -7 3 4 3 10 0 14 -4 3 -7 0 -7 -7z"/>
 <path d="M2326 2422 c-8 -65 14 -142 48 -170 30 -23 49 -59 40 -74 -11 -18 -15 -70 -5 -64 4 3 6 -6 3 -20 -3 -15 1 -29 8 -34 16 -10 5 -61 -13 -57 -7 1 -11 -7 -9 -23 2 -24 2 -24 -9 -5 -18 30 -19 31 -29 15 -7 -10 -10 -11 -10 -2 0 6 -4 12 -10 12 -5 0 -10 -7 -10 -16 0 -8 -5 -12 -11 -8 -6 3 -15 0 -20 -7 -6 -10 -9 -11 -9 -1 0 22 -20 13 -21 -10 -1 -22 -1 -22 -9 2 -7 23 -7 23 -11 -10 -4 -34 -6 -35 -44 -35 -40 0 -40 0 -45 -43 l-5 -43 -13 31 -14 30 -36 -49 c-21 -28 -39 -46 -40 -40 -6 16 -22 -1 -23 -24 0 -12 -3 -16 -6 -9 -3 7 -24 12 -54 12 -32 0 -49 -4 -49 -12 0 -9 -4 -8 -10 2 -8 11 -9 8 -4 -12 4 -18 2 -28 -5 -28 -6 0 -11 4 -11 10 0 5 -10 14 -21 21 -17 9 -20 8 -13 -3 5 -8 1 -8 -12 3 -10 9 -34 21 -51 29 -18 7 -33 17 -33 22 0 6 -6 5 -15 -2 -17 -14 -39 -4 -31 16 7 17 -6 18 -23 2 -11 -11 -12 -9 -6 10 5 16 2 22 -9 22 -9 0 -16 -5 -16 -10 0 -6 -12 -8 -27 -5 -24 5 -25 4 -7 -4 16 -7 23 -21 26 -51 4 -41 4 -41 -14 -18 -10 13 -18 28 -18 34 0 7 -7 15 -15 18 -12 4 -14 14 -10 38 5 29 3 35 -22 46 -17 8 -30 9 -37 2 -10 -10 -46 24 -46 44 0 6 -5 5 -12 -2 -18 -18 -26 -15 -30 11 -2 14 -10 22 -23 22 -14 0 -21 8 -23 25 -5 48 -12 70 -23 70 -6 0 -20 11 -31 25 -11 14 -28 25 -38 25 -23 0 -72 25 -64 33 4 3 -7 9 -22 13 -30 7 -64 31 -64 46 0 10 -43 61 -84 99 -15 15 -26 32 -22 37 3 6 3 13 -2 16 -9 5 -32 -126 -32 -181 0 -17 -5 -35 -11 -38 -7 -5 -8 -48 -4 -136 8 -149 4 -157 -79 -179 -45 -12 -47 -14 -30 -28 13 -10 36 -12 77 -9 l57 5 -4 -63 c-2 -35 -7 -69 -11 -75 -3 -5 -2 -10 4 -10 5 0 12 6 14 13 4 7 6 6 6 -5 1 -9 -5 -19 -11 -21 -9 -4 -8 -6 3 -6 12 -1 15 -12 14 -53 -1 -29 -5 -62 -9 -73 -7 -18 -6 -18 4 -2 21 32 33 19 26 -27 -5 -30 -3 -47 5 -52 8 -4 9 -3 5 4 -4 7 -2 12 3 12 6 0 11 -4 11 -10 0 -5 6 -9 13 -7 6 1 10 -5 8 -13 -9 -39 -7 -61 5 -71 8 -6 14 -24 14 -40 0 -15 8 -34 18 -41 13 -10 17 -27 17 -77 0 -43 4 -66 13 -69 6 -2 12 -10 12 -18 0 -8 5 -14 10 -14 6 0 10 -7 10 -16 0 -8 4 -13 9 -10 13 8 30 -39 24 -65 -4 -15 -3 -20 5 -15 7 4 12 17 12 29 0 72 76 -135 87 -238 15 -142 23 -178 42 -199 26 -28 29 -68 4 -59 -13 5 -15 2 -10 -11 4 -10 7 -20 7 -22 0 -2 11 -4 25 -4 27 0 32 -9 13 -28 -9 -9 -9 -18 1 -38 6 -14 9 -34 6 -44 -4 -11 2 -26 15 -38 l21 -19 -26 4 c-20 4 -24 2 -19 -11 4 -11 1 -16 -10 -16 -18 0 -22 -16 -5 -22 12 -4 11 -7 -20 -66 -6 -13 -9 -27 -6 -32 4 -6 1 -10 -5 -10 -6 0 -8 -4 -5 -10 3 -6 1 -10 -4 -10 -6 0 -11 7 -11 16 0 9 -5 12 -12 8 -10 -6 -10 -4 0 7 13 14 17 33 4 25 -10 -6 -17 99 -15 224 l2 105 -20 -32 c-12 -18 -26 -65 -32 -104 -12 -81 -4 -74 -140 -109 l-89 -23 -38 22 c-49 28 -85 27 -147 -5 -41 -20 -54 -33 -63 -60 -10 -30 -16 -34 -45 -34 -19 0 -37 5 -40 10 -13 21 -53 9 -94 -29 -31 -29 -49 -38 -67 -35 -13 2 -39 -2 -57 -10 -31 -13 -37 -11 -113 25 -78 38 -127 47 -169 29 -15 -6 -27 -2 -45 15 -14 13 -60 39 -102 58 l-78 36 0 -140 0 -139 148 0 148 0 13 49 c9 36 17 48 27 44 8 -3 11 -10 7 -17 -4 -6 -8 -18 -10 -26 -1 -8 -6 -16 -12 -18 -5 -2 -7 -10 -4 -17 4 -12 70 -14 404 -15 l398 0 12 40 c7 22 16 40 20 40 5 0 6 6 3 14 -3 8 0 25 7 38 7 13 12 26 11 31 -1 4 2 7 8 7 5 0 10 8 10 18 0 14 73 102 85 102 2 0 0 -14 -5 -31 -5 -18 -7 -36 -4 -40 5 -9 7 -21 19 -152 l7 -67 671 2 672 3 -1 22 c0 12 4 19 9 16 5 -3 7 -13 4 -23 -3 -14 1 -18 14 -17 11 1 19 7 19 14 0 7 7 13 16 13 12 0 15 6 10 25 -4 14 -2 25 3 25 5 0 11 -9 14 -20 3 -11 12 -20 21 -20 23 0 20 16 -9 38 -17 13 -22 23 -14 27 6 4 16 2 22 -4 18 -18 26 -13 24 15 -1 15 4 29 11 31 9 4 11 -2 6 -21 -4 -17 -2 -26 6 -26 10 0 10 -3 0 -15 -11 -13 -10 -14 4 -9 9 3 16 1 16 -5 0 -6 4 -11 8 -11 14 0 32 48 32 83 0 36 26 81 41 72 5 -4 9 0 9 7 0 8 7 23 16 34 8 10 13 13 9 6 -3 -6 -1 -12 4 -12 6 0 11 6 11 14 0 20 27 40 32 24 3 -7 11 4 18 24 15 40 28 49 30 21 0 -10 3 -59 6 -108 4 -65 1 -107 -10 -152 -20 -76 -20 -73 4 -73 21 0 33 30 34 87 1 18 4 33 9 33 4 0 7 16 7 36 0 24 4 34 13 32 23 -8 85 -101 96 -145 10 -36 15 -43 36 -43 23 0 25 4 25 41 0 22 -5 60 -11 85 -10 40 -18 49 -41 45 -4 0 -5 6 -2 14 4 8 1 15 -4 15 -6 0 -18 8 -28 17 -10 10 -20 18 -23 18 -3 1 -28 22 -55 48 -37 37 -47 53 -42 70 3 12 6 27 6 32 0 6 5 3 10 -5 8 -12 10 -11 10 8 0 12 6 22 14 22 8 0 16 5 18 11 3 9 9 9 25 0 20 -10 22 -8 25 16 4 39 45 59 72 35 18 -16 19 -16 14 6 -4 15 0 27 15 40 12 9 22 23 23 30 3 36 5 42 15 42 7 0 9 -10 5 -27 -5 -21 -4 -24 4 -13 5 8 10 25 10 38 0 12 4 22 9 22 6 0 13 20 17 45 3 25 10 42 16 39 5 -4 8 -17 6 -29 -4 -16 -1 -22 9 -18 7 3 14 10 14 17 1 6 2 16 4 21 1 6 3 16 3 23 1 7 6 11 10 8 5 -3 8 21 8 54 0 35 4 64 12 72 7 7 12 41 12 87 0 57 3 72 11 61 9 -12 10 -11 4 5 -3 10 1 33 9 50 8 16 19 41 26 55 30 66 42 83 51 69 6 -11 9 -8 9 8 0 12 8 24 18 27 11 4 17 17 18 38 1 18 5 47 9 63 5 23 4 26 -4 15 -14 -20 -15 4 -1 29 5 10 12 47 15 82 4 35 14 79 23 99 14 28 17 60 15 165 -1 72 -6 146 -11 165 -8 34 -9 35 -17 10 -5 -14 -10 -32 -11 -40 -2 -8 -8 -16 -13 -18 -6 -2 -11 -10 -11 -17 0 -7 -9 -15 -21 -18 -12 -3 -18 -10 -14 -16 4 -8 -2 -8 -19 -1 -16 6 -27 6 -31 -1 -4 -5 -1 -8 7 -7 8 2 12 -5 11 -17 -1 -11 4 -37 12 -57 13 -34 13 -38 0 -38 -8 0 -15 -9 -15 -19 0 -11 -3 -22 -8 -25 -4 -2 -6 13 -4 33 3 25 -2 43 -12 54 -10 9 -16 32 -16 57 0 28 -4 39 -11 34 -7 -4 -9 0 -5 12 3 11 1 26 -5 34 -8 12 -9 9 -4 -9 5 -16 4 -21 -4 -17 -6 4 -11 13 -11 21 0 7 -6 15 -14 18 -9 4 -12 0 -9 -13 3 -10 0 -21 -6 -24 -7 -5 -8 -1 -5 9 4 8 -5 32 -18 53 -13 20 -27 45 -31 55 -4 10 -11 16 -16 12 -11 -6 -4 -32 13 -52 26 -29 31 -39 33 -61 2 -13 -1 -21 -7 -17 -6 3 -10 13 -10 20 0 20 -31 55 -48 55 -8 0 -12 6 -9 14 3 8 -1 13 -11 12 -14 -1 -22 10 -54 76 -4 10 -8 25 -8 33 0 9 -7 18 -15 21 -8 3 -19 24 -25 45 -6 21 -16 38 -23 36 -7 -1 -13 11 -15 30 -2 22 -7 30 -16 27 -8 -3 -12 -15 -9 -27 4 -20 3 -20 -7 -4 -9 15 -8 22 6 38 17 18 16 19 -20 19 -34 0 -37 -2 -31 -21 5 -15 4 -19 -4 -15 -6 4 -11 14 -11 22 0 8 -7 14 -15 14 -16 0 -20 12 -8 24 15 14 17 156 3 170 -5 5 -21 8 -37 8 -144 -6 -205 -2 -278 17 -103 27 -123 26 -182 -4 -70 -36 -86 -51 -80 -74 6 -24 -19 -37 -39 -20 -8 6 -14 8 -14 3 0 -28 -33 47 -44 99 l-13 62 -7 -53z m431 -39 c-4 -3 -10 -3 -14 0 -3 4 0 7 7 7 7 0 10 -3 7 -7z m250 -140 c-4 -3 -10 -3 -14 0 -3 4 0 7 7 7 7 0 10 -3 7 -7z m80 -70 c-4 -3 -10 -3 -14 0 -3 4 0 7 7 7 7 0 10 -3 7 -7z m-40 -50 c-4 -3 -7 0 -7 7 0 7 3 10 7 7 3 -4 3 -10 0 -14z m-542 -50 c14 -13 10 -43 -5 -43 -10 0 -20 38 -19 75 2 26 2 27 6 6 3 -13 11 -30 18 -38z m42 20 c-4 -3 -7 0 -7 7 0 7 3 10 7 7 3 -4 3 -10 0 -14z m-80 -20 c-4 -3 -7 0 -7 7 0 7 3 10 7 7 3 -4 3 -10 0 -14z m690 -10 c-4 -3 -7 0 -7 7 0 7 3 10 7 7 3 -4 3 -10 0 -14z m-275 -45 c22 -6 43 -19 48 -28 10 -19 -18 -83 -34 -77 -6 2 -32 10 -58 18 -33 9 -48 19 -48 31 0 9 5 20 10 23 6 3 10 15 10 26 0 22 16 24 72 7z m-662 -138 c0 -5 -4 -10 -10 -10 -5 0 -10 5 -10 10 0 6 5 10 10 10 6 0 10 -4 10 -10z m654 -102 c12 -7 22 -6 28 0 7 7 19 7 34 2 13 -5 24 -5 26 0 6 17 73 -5 83 -28 6 -13 22 -24 40 -28 24 -4 35 -14 48 -45 10 -22 16 -53 15 -69 -2 -26 -5 -29 -28 -24 -14 3 -42 24 -62 46 -32 36 -40 40 -65 33 -15 -5 -37 -7 -47 -6 -35 5 -107 -22 -126 -47 -11 -13 -20 -21 -20 -17 0 4 -11 0 -24 -8 -28 -19 -158 -16 -182 4 -8 6 -17 9 -21 5 -3 -3 0 -6 7 -6 25 0 -5 -20 -30 -20 -35 -1 -120 23 -120 33 0 18 22 47 35 47 8 0 24 9 36 21 13 13 38 22 67 25 25 2 49 10 54 17 4 6 13 12 20 12 7 0 13 9 13 20 1 11 6 19 13 17 7 -1 15 5 18 13 5 12 9 13 20 4 9 -7 14 -8 14 -1 0 6 8 12 18 14 26 6 115 -3 136 -14z m-1147 -15 c-4 -3 -10 -3 -14 0 -3 4 0 7 7 7 7 0 10 -3 7 -7z m1683 3 c0 -3 -5 -8 -12 -12 -7 -4 -8 -3 -4 4 7 12 16 16 16 8z m7 -38 c-3 -8 -6 -5 -6 6 -1 11 2 17 5 13 3 -3 4 -12 1 -19z m40 -90 c-3 -8 -6 -5 -6 6 -1 11 2 17 5 13 3 -3 4 -12 1 -19z m68 -48 c-11 -17 -23 -1 -18 21 5 19 7 19 15 5 5 -9 6 -21 3 -26z m-635 -204 c0 -3 -4 -8 -10 -11 -5 -3 -10 -1 -10 4 0 6 5 11 10 11 6 0 10 -2 10 -4z m-140 -141 c0 -5 -5 -3 -10 5 -5 8 -10 20 -10 25 0 6 5 3 10 -5 5 -8 10 -19 10 -25z m-185 -15 c3 -5 4 -10 1 -10 -3 0 -8 5 -11 10 -3 6 -4 10 -1 10 3 0 8 -4 11 -10z m502 -107 c-4 -3 -7 0 -7 7 0 7 3 10 7 7 3 -4 3 -10 0 -14z m-290 -55 c-3 -7 -5 -2 -5 12 0 14 2 19 5 13 2 -7 2 -19 0 -25z m-200 -95 c-4 -3 -7 0 -7 7 0 7 3 10 7 7 3 -4 3 -10 0 -14z m830 -85 c-3 -7 -5 -2 -5 12 0 14 2 19 5 13 2 -7 2 -19 0 -25z m0 -35 c-4 -3 -7 0 -7 7 0 7 3 10 7 7 3 -4 3 -10 0 -14z m-40 -100 c-4 -3 -7 0 -7 7 0 7 3 10 7 7 3 -4 3 -10 0 -14z m20 -20 c-4 -3 -7 0 -7 7 0 7 3 10 7 7 3 -4 3 -10 0 -14z m-83 -92 c-9 -23 -18 -40 -20 -38 -2 2 4 22 13 45 9 23 18 40 20 38 2 -2 -4 -22 -13 -45z m-1840 -207 c22 -22 20 -34 -6 -34 -19 0 -20 2 -8 11 11 8 12 12 3 16 -7 2 -13 9 -13 14 0 13 6 11 24 -7z m31 -88 c6 -7 19 -16 30 -20 l20 -7 -20 -11 c-11 -6 -23 -16 -27 -22 -5 -7 -8 -8 -8 0 0 5 5 15 12 22 9 9 8 12 -4 12 -9 0 -18 7 -22 15 -3 8 -12 15 -21 15 -8 0 -15 4 -15 9 0 12 42 2 55 -13z m102 -73 c-4 -3 -10 -3 -14 0 -3 4 0 7 7 7 7 0 10 -3 7 -7z m-120 -30 c-4 -3 -10 -3 -14 0 -3 4 0 7 7 7 7 0 10 -3 7 -7z m-10 -98 c-9 -7 -17 -16 -17 -21 0 -5 -11 -11 -25 -12 -31 -2 -33 20 -5 48 11 11 20 27 20 36 0 12 6 9 22 -11 20 -26 20 -29 5 -40z m63 31 c0 -5 -7 -3 -15 4 -8 7 -12 17 -9 22 7 10 24 -9 24 -26z m1310 -6 c0 -5 -5 -10 -11 -10 -5 0 -7 5 -4 10 3 6 8 10 11 10 2 0 4 -4 4 -10z m-20 -45 c-7 -9 -15 -13 -18 -10 -3 2 1 11 8 20 7 9 15 13 18 10 3 -2 -1 -11 -8 -20z m-123 -32 c-4 -3 -7 0 -7 7 0 7 3 10 7 7 3 -4 3 -10 0 -14z m-2133 -28 c-9 -14 -18 -25 -20 -25 -7 0 10 35 20 42 17 12 17 9 0 -17z"/>
 <path d="M2913 1763 c4 -3 10 -3 14 0 3 4 0 7 -7 7 -7 0 -10 -3 -7 -7z"/>
 <path d="M1420 140 c0 -5 5 -10 10 -10 6 0 10 5 10 10 0 6 -4 10 -10 10 -5 0 -10 -4 -10 -10z"/>
 <path d="M743 2380 c0 -25 2 -35 4 -22 2 12 2 32 0 45 -2 12 -4 2 -4 -23z"/>
 <path d="M997 2402 c16 -10 4 -27 -24 -36 -13 -4 -23 -13 -23 -19 -1 -7 -2 -50 -3 -97 -1 -47 -6 -88 -12 -92 -6 -5 -3 -8 6 -8 10 0 20 11 23 28 9 34 49 135 57 142 3 3 9 22 12 42 5 36 -4 48 -36 48 -9 0 -9 -2 0 -8z"/>
 <path d="M933 2083 c4 -3 10 -3 14 0 3 4 0 7 -7 7 -7 0 -10 -3 -7 -7z"/>
 <path d="M1425 2010 c-3 -5 -1 -10 4 -10 6 0 11 5 11 10 0 6 -2 10 -4 10 -3 0 -8 -4 -11 -10z"/>
 <path d="M2230 1930 c0 -7 3 -10 7 -7 3 4 3 10 0 14 -4 3 -7 0 -7 -7z"/>
 <path d="M3590 1910 c0 -7 3 -10 7 -7 3 4 3 10 0 14 -4 3 -7 0 -7 -7z"/>
 <path d="M2141 1884 c0 -11 3 -14 6 -6 3 7 2 16 -1 19 -3 4 -6 -2 -5 -13z"/>
 <path d="M3390 1880 c0 -7 3 -10 7 -7 3 4 3 10 0 14 -4 3 -7 0 -7 -7z"/>
 <path d="M2074 1838 c-4 -7 -3 -8 4 -4 7 4 12 9 12 12 0 8 -9 4 -16 -8z"/>
 <path d="M3470 1730 c0 -7 3 -10 7 -7 3 4 3 10 0 14 -4 3 -7 0 -7 -7z"/>
 <path d="M1084 1404 c-13 -19 -19 -22 -25 -12 -6 9 -9 9 -9 1 0 -31 30 -18 54 25 13 23 -3 12 -20 -14z"/>
 <path d="M3590 1320 c0 -7 3 -10 7 -7 3 4 3 10 0 14 -4 3 -7 0 -7 -7z"/>
 <path d="M1126 1243 c-6 -14 -5 -15 5 -6 7 7 10 15 7 18 -3 3 -9 -2 -12 -12z"/>
 <path d="M3270 510 c0 -7 3 -10 7 -7 3 4 3 10 0 14 -4 3 -7 0 -7 -7z"/>
 <path d="M3178 473 c-22 -5 -24 -20 -3 -20 8 0 16 6 19 14 3 7 4 12 3 12 -1 -1 -10 -3 -19 -6z"/>
 <path d="M3080 390 c0 -7 3 -10 7 -7 3 4 3 10 0 14 -4 3 -7 0 -7 -7z"/>
 <path d="M1350 240 c0 -7 3 -10 7 -7 3 4 3 10 0 14 -4 3 -7 0 -7 -7z"/>
 <path d="M2944 239 c-3 -6 -2 -15 3 -20 5 -5 9 -1 9 11 0 23 -2 24 -12 9z"/>
 <path d="M3243 163 c4 -3 10 -3 14 0 3 4 0 7 -7 7 -7 0 -10 -3 -7 -7z"/>
 <path d="M3403 113 c4 -3 10 -3 14 0 3 4 0 7 -7 7 -7 0 -10 -3 -7 -7z"/>
 <path d="M3272 48 c1 -34 6 -48 15 -48 10 0 12 7 8 20 -4 12 -2 20 5 20 7 0 14 -9 17 -20 4 -14 14 -20 33 -20 24 0 27 3 23 21 -3 11 -12 23 -19 26 -8 3 -14 15 -14 27 0 19 -5 22 -34 22 l-35 -1 1 -47z"/>
 <path d="M3466 62 c-3 -4 4 -16 15 -26 20 -16 20 -16 17 5 -3 24 -22 36 -32 21z"/>
 <path d="M4578 3 c7 -3 16 -2 19 1 4 3 -2 6 -13 5 -11 0 -14 -3 -6 -6z"/>
 </g>

</svg>